<mxfile host="app.diagrams.net" modified="2022-02-18T02:21:25.859Z" agent="5.0 (Windows NT 10.0; Win64; x64) AppleWebKit/537.36 (KHTML, like Gecko) Chrome/97.0.4692.71 Safari/537.36" etag="NYTO8xyCx52nMJ6DIItT" version="16.5.6" type="github" pages="5">
  <diagram id="6bnHpI4cZpsdlI7_PELI" name="时序图">
    <mxGraphModel dx="3460" dy="955" grid="1" gridSize="10" guides="1" tooltips="1" connect="1" arrows="1" fold="1" page="1" pageScale="1" pageWidth="827" pageHeight="1169" math="0" shadow="0">
      <root>
        <mxCell id="0" />
        <mxCell id="1" parent="0" />
        <mxCell id="9qDZQP6KY1lODNuhh0SA-13" value="3.1批量导入零件主信息" style="html=1;verticalAlign=bottom;endArrow=block;entryX=0;entryY=0;rounded=0;" parent="1" target="9qDZQP6KY1lODNuhh0SA-12" edge="1">
          <mxGeometry relative="1" as="geometry">
            <mxPoint x="-635" y="620" as="sourcePoint" />
          </mxGeometry>
        </mxCell>
        <mxCell id="9qDZQP6KY1lODNuhh0SA-14" value="" style="html=1;verticalAlign=bottom;endArrow=open;dashed=1;endSize=8;exitX=0;exitY=0.95;rounded=0;" parent="1" edge="1">
          <mxGeometry relative="1" as="geometry">
            <mxPoint x="-635" y="700" as="targetPoint" />
            <mxPoint x="-474.9999999999998" y="700" as="sourcePoint" />
          </mxGeometry>
        </mxCell>
        <mxCell id="0LydJXx7M0l3ICLnaT1j-2" value="Opt" style="shape=umlFrame;whiteSpace=wrap;html=1;labelBackgroundColor=#FFFFFF;fontColor=#393939;fillColor=#FFFFFF;width=40;height=20;" parent="1" vertex="1">
          <mxGeometry x="-830" y="560" width="550" height="340" as="geometry" />
        </mxCell>
        <mxCell id="6ohJSaFs3OZKNF7ckTL_-2" value="&lt;span style=&quot;background-color: rgb(255 , 255 , 255)&quot;&gt;【&lt;/span&gt;&lt;span style=&quot;background-color: rgb(255 , 255 , 255)&quot;&gt;每日一次&lt;/span&gt;&lt;span style=&quot;background-color: rgb(255 , 255 , 255)&quot;&gt;】&lt;/span&gt;" style="text;html=1;align=center;verticalAlign=middle;resizable=0;points=[];autosize=1;strokeColor=none;fillColor=none;" parent="1" vertex="1">
          <mxGeometry x="-973" y="240" width="90" height="20" as="geometry" />
        </mxCell>
        <mxCell id="6ohJSaFs3OZKNF7ckTL_-3" value="&lt;span style=&quot;background-color: rgb(255 , 255 , 255)&quot;&gt;【&lt;/span&gt;&lt;span style=&quot;background-color: rgb(255 , 255 , 255)&quot;&gt;每日一次&lt;/span&gt;&lt;span style=&quot;background-color: rgb(255 , 255 , 255)&quot;&gt;】&lt;/span&gt;" style="text;html=1;align=center;verticalAlign=middle;resizable=0;points=[];autosize=1;strokeColor=none;fillColor=none;" parent="1" vertex="1">
          <mxGeometry x="-730" y="370" width="90" height="20" as="geometry" />
        </mxCell>
        <mxCell id="LRd9EyxCTDxwuXBP93DP-17" value="" style="shape=umlLifeline;participant=umlActor;perimeter=lifelinePerimeter;whiteSpace=wrap;html=1;container=1;collapsible=0;recursiveResize=0;verticalAlign=top;spacingTop=36;outlineConnect=0;" parent="1" vertex="1">
          <mxGeometry x="-800" y="120" width="20" height="780" as="geometry" />
        </mxCell>
        <mxCell id="LRd9EyxCTDxwuXBP93DP-25" value="1.I/F NO.1 CPM接口_推送零件主档信息" style="html=1;verticalAlign=bottom;endArrow=block;entryX=0;entryY=0;rounded=0;" parent="LRd9EyxCTDxwuXBP93DP-17" target="LRd9EyxCTDxwuXBP93DP-24" edge="1">
          <mxGeometry relative="1" as="geometry">
            <mxPoint x="-75" y="110" as="sourcePoint" />
          </mxGeometry>
        </mxCell>
        <mxCell id="LRd9EyxCTDxwuXBP93DP-47" value="" style="html=1;points=[];perimeter=orthogonalPerimeter;" parent="LRd9EyxCTDxwuXBP93DP-17" vertex="1">
          <mxGeometry x="5" y="480" width="10" height="120" as="geometry" />
        </mxCell>
        <mxCell id="LRd9EyxCTDxwuXBP93DP-18" value="CPM" style="shape=umlLifeline;perimeter=lifelinePerimeter;whiteSpace=wrap;html=1;container=1;collapsible=0;recursiveResize=0;outlineConnect=0;" parent="1" vertex="1">
          <mxGeometry x="-930" y="120" width="100" height="780" as="geometry" />
        </mxCell>
        <mxCell id="LRd9EyxCTDxwuXBP93DP-23" value="" style="html=1;points=[];perimeter=orthogonalPerimeter;" parent="LRd9EyxCTDxwuXBP93DP-18" vertex="1">
          <mxGeometry x="45" y="110" width="10" height="90" as="geometry" />
        </mxCell>
        <mxCell id="LRd9EyxCTDxwuXBP93DP-19" value="零件主信息聚合" style="shape=umlLifeline;perimeter=lifelinePerimeter;whiteSpace=wrap;html=1;container=1;collapsible=0;recursiveResize=0;outlineConnect=0;" parent="1" vertex="1">
          <mxGeometry x="-690" y="120" width="100" height="780" as="geometry" />
        </mxCell>
        <mxCell id="LRd9EyxCTDxwuXBP93DP-29" value="" style="html=1;points=[];perimeter=orthogonalPerimeter;" parent="LRd9EyxCTDxwuXBP93DP-19" vertex="1">
          <mxGeometry x="45" y="250" width="10" height="170" as="geometry" />
        </mxCell>
        <mxCell id="LRd9EyxCTDxwuXBP93DP-49" value="" style="html=1;points=[];perimeter=orthogonalPerimeter;" parent="LRd9EyxCTDxwuXBP93DP-19" vertex="1">
          <mxGeometry x="45" y="480" width="10" height="110" as="geometry" />
        </mxCell>
        <mxCell id="LRd9EyxCTDxwuXBP93DP-20" value="零件主信息领域" style="shape=umlLifeline;perimeter=lifelinePerimeter;whiteSpace=wrap;html=1;container=1;collapsible=0;recursiveResize=0;outlineConnect=0;" parent="1" vertex="1">
          <mxGeometry x="-520" y="120" width="100" height="780" as="geometry" />
        </mxCell>
        <mxCell id="LRd9EyxCTDxwuXBP93DP-40" value="" style="html=1;points=[];perimeter=orthogonalPerimeter;" parent="LRd9EyxCTDxwuXBP93DP-20" vertex="1">
          <mxGeometry x="45" y="322" width="10" height="80" as="geometry" />
        </mxCell>
        <mxCell id="LRd9EyxCTDxwuXBP93DP-45" value="" style="html=1;points=[];perimeter=orthogonalPerimeter;" parent="LRd9EyxCTDxwuXBP93DP-20" vertex="1">
          <mxGeometry x="55" y="352" width="10" height="40" as="geometry" />
        </mxCell>
        <mxCell id="LRd9EyxCTDxwuXBP93DP-46" value="2.2新增零件主信息&lt;br&gt;持久化" style="edgeStyle=orthogonalEdgeStyle;html=1;align=left;spacingLeft=2;endArrow=block;rounded=0;entryX=1;entryY=0;exitX=1.027;exitY=0.124;exitDx=0;exitDy=0;exitPerimeter=0;" parent="LRd9EyxCTDxwuXBP93DP-20" source="LRd9EyxCTDxwuXBP93DP-40" target="LRd9EyxCTDxwuXBP93DP-45" edge="1">
          <mxGeometry relative="1" as="geometry">
            <mxPoint x="60" y="332" as="sourcePoint" />
            <Array as="points">
              <mxPoint x="90" y="332" />
              <mxPoint x="90" y="352" />
            </Array>
          </mxGeometry>
        </mxCell>
        <mxCell id="9qDZQP6KY1lODNuhh0SA-12" value="" style="html=1;points=[];perimeter=orthogonalPerimeter;" parent="LRd9EyxCTDxwuXBP93DP-20" vertex="1">
          <mxGeometry x="45" y="500" width="10" height="80" as="geometry" />
        </mxCell>
        <mxCell id="9qDZQP6KY1lODNuhh0SA-15" value="" style="html=1;points=[];perimeter=orthogonalPerimeter;" parent="LRd9EyxCTDxwuXBP93DP-20" vertex="1">
          <mxGeometry x="55" y="530" width="10" height="40" as="geometry" />
        </mxCell>
        <mxCell id="9qDZQP6KY1lODNuhh0SA-16" value="3.1.1新增零件主信息&lt;br&gt;持久化" style="edgeStyle=orthogonalEdgeStyle;html=1;align=left;spacingLeft=2;endArrow=block;rounded=0;entryX=1;entryY=0;exitX=1.041;exitY=0.124;exitDx=0;exitDy=0;exitPerimeter=0;" parent="LRd9EyxCTDxwuXBP93DP-20" source="9qDZQP6KY1lODNuhh0SA-12" target="9qDZQP6KY1lODNuhh0SA-15" edge="1">
          <mxGeometry relative="1" as="geometry">
            <mxPoint x="60" y="510" as="sourcePoint" />
            <Array as="points">
              <mxPoint x="90" y="510" />
              <mxPoint x="90" y="530" />
            </Array>
          </mxGeometry>
        </mxCell>
        <mxCell id="LRd9EyxCTDxwuXBP93DP-21" value="文件服务器" style="shape=umlLifeline;perimeter=lifelinePerimeter;whiteSpace=wrap;html=1;container=1;collapsible=0;recursiveResize=0;outlineConnect=0;" parent="1" vertex="1">
          <mxGeometry x="-360" y="120" width="100" height="780" as="geometry" />
        </mxCell>
        <mxCell id="LRd9EyxCTDxwuXBP93DP-24" value="" style="html=1;points=[];perimeter=orthogonalPerimeter;" parent="LRd9EyxCTDxwuXBP93DP-21" vertex="1">
          <mxGeometry x="45" y="110" width="10" height="80" as="geometry" />
        </mxCell>
        <mxCell id="LRd9EyxCTDxwuXBP93DP-27" value="" style="html=1;points=[];perimeter=orthogonalPerimeter;" parent="LRd9EyxCTDxwuXBP93DP-21" vertex="1">
          <mxGeometry x="55" y="140" width="10" height="40" as="geometry" />
        </mxCell>
        <mxCell id="LRd9EyxCTDxwuXBP93DP-28" value="1.1文件保存至服务器" style="edgeStyle=orthogonalEdgeStyle;html=1;align=left;spacingLeft=2;endArrow=block;rounded=0;entryX=1;entryY=0;exitX=1.047;exitY=0.126;exitDx=0;exitDy=0;exitPerimeter=0;" parent="LRd9EyxCTDxwuXBP93DP-21" source="LRd9EyxCTDxwuXBP93DP-24" target="LRd9EyxCTDxwuXBP93DP-27" edge="1">
          <mxGeometry relative="1" as="geometry">
            <mxPoint x="60" y="120" as="sourcePoint" />
            <Array as="points">
              <mxPoint x="90" y="120" />
              <mxPoint x="90" y="140" />
            </Array>
          </mxGeometry>
        </mxCell>
        <mxCell id="LRd9EyxCTDxwuXBP93DP-30" value="" style="html=1;points=[];perimeter=orthogonalPerimeter;" parent="LRd9EyxCTDxwuXBP93DP-21" vertex="1">
          <mxGeometry x="45" y="250" width="10" height="30" as="geometry" />
        </mxCell>
        <mxCell id="LRd9EyxCTDxwuXBP93DP-22" value="【厂端用户】" style="text;html=1;align=center;verticalAlign=middle;resizable=0;points=[];autosize=1;strokeColor=none;fillColor=none;" parent="1" vertex="1">
          <mxGeometry x="-835" y="157" width="90" height="20" as="geometry" />
        </mxCell>
        <mxCell id="LRd9EyxCTDxwuXBP93DP-31" value="2.获取文件" style="html=1;verticalAlign=bottom;endArrow=block;entryX=0;entryY=0;rounded=0;" parent="1" target="LRd9EyxCTDxwuXBP93DP-30" edge="1">
          <mxGeometry relative="1" as="geometry">
            <mxPoint x="-635" y="370" as="sourcePoint" />
          </mxGeometry>
        </mxCell>
        <mxCell id="LRd9EyxCTDxwuXBP93DP-32" value="" style="html=1;verticalAlign=bottom;endArrow=open;dashed=1;endSize=8;exitX=0;exitY=0.95;rounded=0;" parent="1" edge="1">
          <mxGeometry relative="1" as="geometry">
            <mxPoint x="-635" y="400" as="targetPoint" />
            <mxPoint x="-315" y="400" as="sourcePoint" />
          </mxGeometry>
        </mxCell>
        <mxCell id="LRd9EyxCTDxwuXBP93DP-41" value="2.1新建零件主信息" style="html=1;verticalAlign=bottom;endArrow=block;entryX=0;entryY=0;rounded=0;" parent="1" target="LRd9EyxCTDxwuXBP93DP-40" edge="1">
          <mxGeometry relative="1" as="geometry">
            <mxPoint x="-635" y="442" as="sourcePoint" />
          </mxGeometry>
        </mxCell>
        <mxCell id="LRd9EyxCTDxwuXBP93DP-42" value="" style="html=1;verticalAlign=bottom;endArrow=open;dashed=1;endSize=8;exitX=0;exitY=0.95;rounded=0;" parent="1" edge="1">
          <mxGeometry relative="1" as="geometry">
            <mxPoint x="-635" y="522" as="targetPoint" />
            <mxPoint x="-475" y="521" as="sourcePoint" />
          </mxGeometry>
        </mxCell>
        <mxCell id="LRd9EyxCTDxwuXBP93DP-44" value="Loop" style="shape=umlFrame;whiteSpace=wrap;html=1;labelBackgroundColor=#FFFFFF;fillColor=#FFFFFF;width=40;height=20;" parent="1" vertex="1">
          <mxGeometry x="-960" y="210" width="810" height="120" as="geometry" />
        </mxCell>
        <mxCell id="LRd9EyxCTDxwuXBP93DP-50" value="3.批量导入零件主信息" style="html=1;verticalAlign=bottom;endArrow=block;entryX=0;entryY=0;rounded=0;" parent="1" target="LRd9EyxCTDxwuXBP93DP-49" edge="1">
          <mxGeometry relative="1" as="geometry">
            <mxPoint x="-786" y="600" as="sourcePoint" />
          </mxGeometry>
        </mxCell>
        <mxCell id="LRd9EyxCTDxwuXBP93DP-51" value="" style="html=1;verticalAlign=bottom;endArrow=open;dashed=1;endSize=8;exitX=0;exitY=0.95;rounded=0;" parent="1" edge="1">
          <mxGeometry relative="1" as="geometry">
            <mxPoint x="-785" y="710.4999999999998" as="targetPoint" />
            <mxPoint x="-645" y="710.4999999999998" as="sourcePoint" />
          </mxGeometry>
        </mxCell>
        <mxCell id="LRd9EyxCTDxwuXBP93DP-52" value="4.1新建零件主信息" style="html=1;verticalAlign=bottom;endArrow=block;entryX=0;entryY=0;rounded=0;" parent="1" target="LRd9EyxCTDxwuXBP93DP-56" edge="1">
          <mxGeometry relative="1" as="geometry">
            <mxPoint x="-635" y="790" as="sourcePoint" />
          </mxGeometry>
        </mxCell>
        <mxCell id="LRd9EyxCTDxwuXBP93DP-53" value="" style="html=1;verticalAlign=bottom;endArrow=open;dashed=1;endSize=8;exitX=0;exitY=0.95;rounded=0;" parent="1" edge="1">
          <mxGeometry relative="1" as="geometry">
            <mxPoint x="-635" y="870" as="targetPoint" />
            <mxPoint x="-475" y="870" as="sourcePoint" />
          </mxGeometry>
        </mxCell>
        <mxCell id="LRd9EyxCTDxwuXBP93DP-54" value="" style="html=1;points=[];perimeter=orthogonalPerimeter;" parent="1" vertex="1">
          <mxGeometry x="-795" y="770" width="10" height="120" as="geometry" />
        </mxCell>
        <mxCell id="LRd9EyxCTDxwuXBP93DP-55" value="" style="html=1;points=[];perimeter=orthogonalPerimeter;" parent="1" vertex="1">
          <mxGeometry x="-645" y="770" width="10" height="110" as="geometry" />
        </mxCell>
        <mxCell id="LRd9EyxCTDxwuXBP93DP-56" value="" style="html=1;points=[];perimeter=orthogonalPerimeter;" parent="1" vertex="1">
          <mxGeometry x="-475" y="790" width="10" height="80" as="geometry" />
        </mxCell>
        <mxCell id="LRd9EyxCTDxwuXBP93DP-57" value="" style="html=1;points=[];perimeter=orthogonalPerimeter;" parent="1" vertex="1">
          <mxGeometry x="-465" y="820" width="10" height="40" as="geometry" />
        </mxCell>
        <mxCell id="LRd9EyxCTDxwuXBP93DP-58" value="4.1.1新增零件主信息&lt;br&gt;持久化" style="edgeStyle=orthogonalEdgeStyle;html=1;align=left;spacingLeft=2;endArrow=block;rounded=0;entryX=1;entryY=0;exitX=1.041;exitY=0.124;exitDx=0;exitDy=0;exitPerimeter=0;" parent="1" source="LRd9EyxCTDxwuXBP93DP-56" target="LRd9EyxCTDxwuXBP93DP-57" edge="1">
          <mxGeometry relative="1" as="geometry">
            <mxPoint x="60" y="680" as="sourcePoint" />
            <Array as="points">
              <mxPoint x="-430" y="800" />
              <mxPoint x="-430" y="820" />
            </Array>
          </mxGeometry>
        </mxCell>
        <mxCell id="LRd9EyxCTDxwuXBP93DP-59" value="4.新建零件主信息" style="html=1;verticalAlign=bottom;endArrow=block;entryX=0;entryY=0;rounded=0;" parent="1" target="LRd9EyxCTDxwuXBP93DP-55" edge="1">
          <mxGeometry relative="1" as="geometry">
            <mxPoint x="-786" y="770" as="sourcePoint" />
          </mxGeometry>
        </mxCell>
        <mxCell id="LRd9EyxCTDxwuXBP93DP-60" value="" style="html=1;verticalAlign=bottom;endArrow=open;dashed=1;endSize=8;exitX=0;exitY=0.95;rounded=0;" parent="1" edge="1">
          <mxGeometry relative="1" as="geometry">
            <mxPoint x="-785" y="880.4999999999998" as="targetPoint" />
            <mxPoint x="-645" y="880.4999999999998" as="sourcePoint" />
          </mxGeometry>
        </mxCell>
        <mxCell id="LRd9EyxCTDxwuXBP93DP-61" value="Loop" style="shape=umlFrame;whiteSpace=wrap;html=1;labelBackgroundColor=#FFFFFF;fillColor=#FFFFFF;width=40;height=20;" parent="1" vertex="1">
          <mxGeometry x="-720" y="350" width="440" height="200" as="geometry" />
        </mxCell>
        <mxCell id="LRd9EyxCTDxwuXBP93DP-62" value="" style="line;strokeWidth=1;fillColor=none;align=left;verticalAlign=middle;spacingTop=-1;spacingLeft=3;spacingRight=3;rotatable=0;labelPosition=right;points=[];portConstraint=eastwest;dashed=1;" parent="1" vertex="1">
          <mxGeometry x="-830" y="730" width="550" height="8" as="geometry" />
        </mxCell>
        <mxCell id="LRd9EyxCTDxwuXBP93DP-64" value="" style="html=1;verticalAlign=bottom;endArrow=open;dashed=1;endSize=8;rounded=0;" parent="1" target="LRd9EyxCTDxwuXBP93DP-23" edge="1">
          <mxGeometry relative="1" as="geometry">
            <mxPoint x="-310" y="310" as="sourcePoint" />
            <mxPoint x="-390" y="310" as="targetPoint" />
          </mxGeometry>
        </mxCell>
        <mxCell id="LRd9EyxCTDxwuXBP93DP-65" value="零件主信息核心流程" style="shape=umlFrame;whiteSpace=wrap;html=1;width=120;height=20;" parent="1" vertex="1">
          <mxGeometry x="-960" y="90" width="820" height="820" as="geometry" />
        </mxCell>
      </root>
    </mxGraphModel>
  </diagram>
  <diagram id="FOFnYMLGnaj3QQaz7xhX" name="定时任务-行为图">
    <mxGraphModel dx="1032" dy="498" grid="1" gridSize="10" guides="1" tooltips="1" connect="1" arrows="1" fold="1" page="1" pageScale="1" pageWidth="827" pageHeight="1169" math="0" shadow="0">
      <root>
        <mxCell id="7OLGIQ1EorespxrLgJ10-0" />
        <mxCell id="7OLGIQ1EorespxrLgJ10-1" parent="7OLGIQ1EorespxrLgJ10-0" />
        <mxCell id="IHvkTjEI3uxPASRba5FX-0" value="领域层-库存管理原子服务" style="shape=umlLifeline;perimeter=lifelinePerimeter;whiteSpace=wrap;html=1;container=1;collapsible=0;recursiveResize=0;outlineConnect=0;labelBackgroundColor=#FFFFFF;fillColor=#FFFFFF;" parent="7OLGIQ1EorespxrLgJ10-1" vertex="1">
          <mxGeometry x="660" y="160" width="100" height="460" as="geometry" />
        </mxCell>
        <mxCell id="THMdplnS1te3H137m6_t-13" value="" style="html=1;points=[];perimeter=orthogonalPerimeter;labelBackgroundColor=#FFFFFF;fillColor=#FFFFFF;" parent="IHvkTjEI3uxPASRba5FX-0" vertex="1">
          <mxGeometry x="45" y="285" width="10" height="80" as="geometry" />
        </mxCell>
        <mxCell id="THMdplnS1te3H137m6_t-16" value="" style="html=1;points=[];perimeter=orthogonalPerimeter;labelBackgroundColor=#FFFFFF;fillColor=#FFFFFF;" parent="IHvkTjEI3uxPASRba5FX-0" vertex="1">
          <mxGeometry x="55" y="315" width="10" height="40" as="geometry" />
        </mxCell>
        <mxCell id="THMdplnS1te3H137m6_t-17" value="1.3.1保存零件主信息()&lt;br&gt;持久化" style="edgeStyle=orthogonalEdgeStyle;html=1;align=left;spacingLeft=2;endArrow=block;rounded=0;entryX=1;entryY=0;exitX=1.018;exitY=0.143;exitDx=0;exitDy=0;exitPerimeter=0;" parent="IHvkTjEI3uxPASRba5FX-0" source="THMdplnS1te3H137m6_t-13" target="THMdplnS1te3H137m6_t-16" edge="1">
          <mxGeometry relative="1" as="geometry">
            <mxPoint x="60" y="295" as="sourcePoint" />
            <Array as="points">
              <mxPoint x="55" y="295" />
              <mxPoint x="90" y="295" />
              <mxPoint x="90" y="315" />
            </Array>
          </mxGeometry>
        </mxCell>
        <mxCell id="IHvkTjEI3uxPASRba5FX-1" value="应用层-零部件聚合服务" style="shape=umlLifeline;perimeter=lifelinePerimeter;whiteSpace=wrap;html=1;container=1;collapsible=0;recursiveResize=0;outlineConnect=0;labelBackgroundColor=#FFFFFF;fillColor=#FFFFFF;" parent="7OLGIQ1EorespxrLgJ10-1" vertex="1">
          <mxGeometry x="500" y="160" width="100" height="460" as="geometry" />
        </mxCell>
        <mxCell id="THMdplnS1te3H137m6_t-8" value="" style="html=1;points=[];perimeter=orthogonalPerimeter;labelBackgroundColor=#FFFFFF;fillColor=#FFFFFF;" parent="IHvkTjEI3uxPASRba5FX-1" vertex="1">
          <mxGeometry x="45" y="80" width="10" height="310" as="geometry" />
        </mxCell>
        <mxCell id="IHvkTjEI3uxPASRba5FX-2" value="接口-BFF服务" style="shape=umlLifeline;perimeter=lifelinePerimeter;whiteSpace=wrap;html=1;container=1;collapsible=0;recursiveResize=0;outlineConnect=0;labelBackgroundColor=#FFFFFF;fillColor=#FFFFFF;" parent="7OLGIQ1EorespxrLgJ10-1" vertex="1">
          <mxGeometry x="380" y="160" width="100" height="460" as="geometry" />
        </mxCell>
        <mxCell id="IHvkTjEI3uxPASRba5FX-3" value="零部件前端" style="shape=umlLifeline;perimeter=lifelinePerimeter;whiteSpace=wrap;html=1;container=1;collapsible=0;recursiveResize=0;outlineConnect=0;labelBackgroundColor=#FFFFFF;fillColor=#FFFFFF;" parent="7OLGIQ1EorespxrLgJ10-1" vertex="1">
          <mxGeometry x="270" y="160" width="100" height="460" as="geometry" />
        </mxCell>
        <mxCell id="THMdplnS1te3H137m6_t-14" value="1.3调用库存管理原子服务()" style="html=1;verticalAlign=bottom;endArrow=block;entryX=0;entryY=0;rounded=0;" parent="7OLGIQ1EorespxrLgJ10-1" target="THMdplnS1te3H137m6_t-13" edge="1">
          <mxGeometry relative="1" as="geometry">
            <mxPoint x="556" y="445" as="sourcePoint" />
          </mxGeometry>
        </mxCell>
        <mxCell id="THMdplnS1te3H137m6_t-15" value="" style="html=1;verticalAlign=bottom;endArrow=open;dashed=1;endSize=8;exitX=0;exitY=0.95;rounded=0;" parent="7OLGIQ1EorespxrLgJ10-1" edge="1">
          <mxGeometry relative="1" as="geometry">
            <mxPoint x="556" y="524" as="targetPoint" />
            <mxPoint x="705" y="524" as="sourcePoint" />
          </mxGeometry>
        </mxCell>
        <mxCell id="ZtvEB8UlHs2p3nsMnhAs-0" value="" style="html=1;points=[];perimeter=orthogonalPerimeter;labelBackgroundColor=#FFFFFF;fillColor=#FFFFFF;" parent="7OLGIQ1EorespxrLgJ10-1" vertex="1">
          <mxGeometry x="555" y="360" width="10" height="40" as="geometry" />
        </mxCell>
        <mxCell id="ZtvEB8UlHs2p3nsMnhAs-1" value="1.2参数合规性校验()" style="edgeStyle=orthogonalEdgeStyle;html=1;align=left;spacingLeft=2;endArrow=block;rounded=0;entryX=1;entryY=0;exitX=1.033;exitY=0.088;exitDx=0;exitDy=0;exitPerimeter=0;" parent="7OLGIQ1EorespxrLgJ10-1" target="ZtvEB8UlHs2p3nsMnhAs-0" edge="1">
          <mxGeometry relative="1" as="geometry">
            <mxPoint x="555.3300000000004" y="359.9200000000001" as="sourcePoint" />
            <Array as="points">
              <mxPoint x="590" y="340" />
              <mxPoint x="590" y="360" />
            </Array>
          </mxGeometry>
        </mxCell>
        <mxCell id="mlTio9FG4z4qd6uqM1Vp-1" value="【每日一次】" style="text;html=1;align=center;verticalAlign=middle;resizable=0;points=[];autosize=1;strokeColor=none;fillColor=none;" parent="7OLGIQ1EorespxrLgJ10-1" vertex="1">
          <mxGeometry x="452" y="250" width="90" height="20" as="geometry" />
        </mxCell>
        <mxCell id="A5uQp4-ApKTcgycOggQ4-0" value="文件服务器" style="shape=umlLifeline;perimeter=lifelinePerimeter;whiteSpace=wrap;html=1;container=1;collapsible=0;recursiveResize=0;outlineConnect=0;" vertex="1" parent="7OLGIQ1EorespxrLgJ10-1">
          <mxGeometry x="820" y="160" width="100" height="460" as="geometry" />
        </mxCell>
        <mxCell id="A5uQp4-ApKTcgycOggQ4-1" value="" style="html=1;points=[];perimeter=orthogonalPerimeter;" vertex="1" parent="A5uQp4-ApKTcgycOggQ4-0">
          <mxGeometry x="45" y="96" width="10" height="30" as="geometry" />
        </mxCell>
        <mxCell id="A5uQp4-ApKTcgycOggQ4-2" value="1.获取文件信息" style="html=1;verticalAlign=bottom;endArrow=block;entryX=0;entryY=0;rounded=0;" edge="1" target="A5uQp4-ApKTcgycOggQ4-1" parent="7OLGIQ1EorespxrLgJ10-1">
          <mxGeometry relative="1" as="geometry">
            <mxPoint x="555" y="256" as="sourcePoint" />
          </mxGeometry>
        </mxCell>
        <mxCell id="A5uQp4-ApKTcgycOggQ4-3" value="" style="html=1;verticalAlign=bottom;endArrow=open;dashed=1;endSize=8;exitX=0;exitY=0.95;rounded=0;" edge="1" source="A5uQp4-ApKTcgycOggQ4-1" parent="7OLGIQ1EorespxrLgJ10-1">
          <mxGeometry relative="1" as="geometry">
            <mxPoint x="555" y="284.5" as="targetPoint" />
          </mxGeometry>
        </mxCell>
        <mxCell id="54kVwgG79NFkQRx_jsIe-1" value="【校验通过】" style="text;html=1;align=center;verticalAlign=middle;resizable=0;points=[];autosize=1;strokeColor=none;fillColor=none;" parent="7OLGIQ1EorespxrLgJ10-1" vertex="1">
          <mxGeometry x="455" y="440" width="90" height="20" as="geometry" />
        </mxCell>
        <mxCell id="A5uQp4-ApKTcgycOggQ4-4" value="Alt" style="shape=umlFrame;whiteSpace=wrap;html=1;width=50;height=20;" vertex="1" parent="7OLGIQ1EorespxrLgJ10-1">
          <mxGeometry x="470" y="410" width="410" height="150" as="geometry" />
        </mxCell>
        <mxCell id="cknXCpRzvNItT4aBiv4q-1" value="Loop" style="shape=umlFrame;whiteSpace=wrap;html=1;width=60;height=20;" vertex="1" parent="7OLGIQ1EorespxrLgJ10-1">
          <mxGeometry x="450" y="220" width="450" height="360" as="geometry" />
        </mxCell>
        <mxCell id="63p1vAb3d8XifB3c88Wd-0" value="定时创建零件主信息-行为" style="shape=umlFrame;whiteSpace=wrap;html=1;width=140;height=20;" vertex="1" parent="7OLGIQ1EorespxrLgJ10-1">
          <mxGeometry x="260" y="130" width="670" height="490" as="geometry" />
        </mxCell>
      </root>
    </mxGraphModel>
  </diagram>
  <diagram id="dGG8FJd8N7IwFIvMK75r" name="事件图">
    <mxGraphModel dx="1806" dy="871" grid="1" gridSize="10" guides="1" tooltips="1" connect="1" arrows="1" fold="1" page="1" pageScale="1" pageWidth="827" pageHeight="1169" math="0" shadow="0">
      <root>
        <mxCell id="RU_HmeFV_STFyEm7z6BS-0" />
        <mxCell id="RU_HmeFV_STFyEm7z6BS-1" parent="RU_HmeFV_STFyEm7z6BS-0" />
      </root>
    </mxGraphModel>
  </diagram>
  <diagram id="fTKao5kH5AFAM4wwmsIB" name="聚合根">
    <mxGraphModel dx="1806" dy="871" grid="1" gridSize="10" guides="1" tooltips="1" connect="1" arrows="1" fold="1" page="1" pageScale="1" pageWidth="827" pageHeight="1169" math="0" shadow="0">
      <root>
        <mxCell id="7-ZAPzwOO9HuGMdEz8zF-0" />
        <mxCell id="7-ZAPzwOO9HuGMdEz8zF-1" parent="7-ZAPzwOO9HuGMdEz8zF-0" />
        <mxCell id="ujMnchfc8mpm0ilcwJpV-10" value="零件主信息" style="shape=table;startSize=30;container=1;collapsible=1;childLayout=tableLayout;fixedRows=1;rowLines=0;fontStyle=1;align=center;resizeLast=1;fillColor=#CFC86B;" parent="7-ZAPzwOO9HuGMdEz8zF-1" vertex="1">
          <mxGeometry x="360" y="320" width="180" height="240" as="geometry" />
        </mxCell>
        <mxCell id="ujMnchfc8mpm0ilcwJpV-11" value="" style="shape=tableRow;horizontal=0;startSize=0;swimlaneHead=0;swimlaneBody=0;fillColor=#CFC86B;collapsible=0;dropTarget=0;points=[[0,0.5],[1,0.5]];portConstraint=eastwest;top=0;left=0;right=0;bottom=1;" parent="ujMnchfc8mpm0ilcwJpV-10" vertex="1">
          <mxGeometry y="30" width="180" height="30" as="geometry" />
        </mxCell>
        <mxCell id="ujMnchfc8mpm0ilcwJpV-12" value="PK" style="shape=partialRectangle;connectable=0;fillColor=#CFC86B;top=0;left=0;bottom=0;right=0;fontStyle=1;overflow=hidden;" parent="ujMnchfc8mpm0ilcwJpV-11" vertex="1">
          <mxGeometry width="30" height="30" as="geometry">
            <mxRectangle width="30" height="30" as="alternateBounds" />
          </mxGeometry>
        </mxCell>
        <mxCell id="ujMnchfc8mpm0ilcwJpV-13" value="id" style="shape=partialRectangle;connectable=0;fillColor=#CFC86B;top=0;left=0;bottom=0;right=0;align=left;spacingLeft=6;fontStyle=1;overflow=hidden;" parent="ujMnchfc8mpm0ilcwJpV-11" vertex="1">
          <mxGeometry x="30" width="150" height="30" as="geometry">
            <mxRectangle width="150" height="30" as="alternateBounds" />
          </mxGeometry>
        </mxCell>
        <mxCell id="ujMnchfc8mpm0ilcwJpV-14" value="" style="shape=tableRow;horizontal=0;startSize=0;swimlaneHead=0;swimlaneBody=0;fillColor=#CFC86B;collapsible=0;dropTarget=0;points=[[0,0.5],[1,0.5]];portConstraint=eastwest;top=0;left=0;right=0;bottom=0;" parent="ujMnchfc8mpm0ilcwJpV-10" vertex="1">
          <mxGeometry y="60" width="180" height="30" as="geometry" />
        </mxCell>
        <mxCell id="ujMnchfc8mpm0ilcwJpV-15" value="" style="shape=partialRectangle;connectable=0;fillColor=#CFC86B;top=0;left=0;bottom=0;right=0;editable=1;overflow=hidden;" parent="ujMnchfc8mpm0ilcwJpV-14" vertex="1">
          <mxGeometry width="30" height="30" as="geometry">
            <mxRectangle width="30" height="30" as="alternateBounds" />
          </mxGeometry>
        </mxCell>
        <mxCell id="ujMnchfc8mpm0ilcwJpV-16" value="零件编号" style="shape=partialRectangle;connectable=0;fillColor=#CFC86B;top=0;left=0;bottom=0;right=0;align=left;spacingLeft=6;overflow=hidden;" parent="ujMnchfc8mpm0ilcwJpV-14" vertex="1">
          <mxGeometry x="30" width="150" height="30" as="geometry">
            <mxRectangle width="150" height="30" as="alternateBounds" />
          </mxGeometry>
        </mxCell>
        <mxCell id="ujMnchfc8mpm0ilcwJpV-17" value="" style="shape=tableRow;horizontal=0;startSize=0;swimlaneHead=0;swimlaneBody=0;fillColor=#CFC86B;collapsible=0;dropTarget=0;points=[[0,0.5],[1,0.5]];portConstraint=eastwest;top=0;left=0;right=0;bottom=0;" parent="ujMnchfc8mpm0ilcwJpV-10" vertex="1">
          <mxGeometry y="90" width="180" height="30" as="geometry" />
        </mxCell>
        <mxCell id="ujMnchfc8mpm0ilcwJpV-18" value="" style="shape=partialRectangle;connectable=0;fillColor=#CFC86B;top=0;left=0;bottom=0;right=0;editable=1;overflow=hidden;" parent="ujMnchfc8mpm0ilcwJpV-17" vertex="1">
          <mxGeometry width="30" height="30" as="geometry">
            <mxRectangle width="30" height="30" as="alternateBounds" />
          </mxGeometry>
        </mxCell>
        <mxCell id="ujMnchfc8mpm0ilcwJpV-19" value="零件名称    " style="shape=partialRectangle;connectable=0;fillColor=#CFC86B;top=0;left=0;bottom=0;right=0;align=left;spacingLeft=6;overflow=hidden;" parent="ujMnchfc8mpm0ilcwJpV-17" vertex="1">
          <mxGeometry x="30" width="150" height="30" as="geometry">
            <mxRectangle width="150" height="30" as="alternateBounds" />
          </mxGeometry>
        </mxCell>
        <mxCell id="ujMnchfc8mpm0ilcwJpV-20" style="shape=tableRow;horizontal=0;startSize=0;swimlaneHead=0;swimlaneBody=0;fillColor=#CFC86B;collapsible=0;dropTarget=0;points=[[0,0.5],[1,0.5]];portConstraint=eastwest;top=0;left=0;right=0;bottom=0;" parent="ujMnchfc8mpm0ilcwJpV-10" vertex="1">
          <mxGeometry y="120" width="180" height="30" as="geometry" />
        </mxCell>
        <mxCell id="ujMnchfc8mpm0ilcwJpV-21" style="shape=partialRectangle;connectable=0;fillColor=#CFC86B;top=0;left=0;bottom=0;right=0;editable=1;overflow=hidden;" parent="ujMnchfc8mpm0ilcwJpV-20" vertex="1">
          <mxGeometry width="30" height="30" as="geometry">
            <mxRectangle width="30" height="30" as="alternateBounds" />
          </mxGeometry>
        </mxCell>
        <mxCell id="ujMnchfc8mpm0ilcwJpV-22" value="零件分类" style="shape=partialRectangle;connectable=0;fillColor=#CFC86B;top=0;left=0;bottom=0;right=0;align=left;spacingLeft=6;overflow=hidden;" parent="ujMnchfc8mpm0ilcwJpV-20" vertex="1">
          <mxGeometry x="30" width="150" height="30" as="geometry">
            <mxRectangle width="150" height="30" as="alternateBounds" />
          </mxGeometry>
        </mxCell>
        <mxCell id="ujMnchfc8mpm0ilcwJpV-29" style="shape=tableRow;horizontal=0;startSize=0;swimlaneHead=0;swimlaneBody=0;fillColor=#CFC86B;collapsible=0;dropTarget=0;points=[[0,0.5],[1,0.5]];portConstraint=eastwest;top=0;left=0;right=0;bottom=0;" parent="ujMnchfc8mpm0ilcwJpV-10" vertex="1">
          <mxGeometry y="150" width="180" height="30" as="geometry" />
        </mxCell>
        <mxCell id="ujMnchfc8mpm0ilcwJpV-30" style="shape=partialRectangle;connectable=0;fillColor=#CFC86B;top=0;left=0;bottom=0;right=0;editable=1;overflow=hidden;" parent="ujMnchfc8mpm0ilcwJpV-29" vertex="1">
          <mxGeometry width="30" height="30" as="geometry">
            <mxRectangle width="30" height="30" as="alternateBounds" />
          </mxGeometry>
        </mxCell>
        <mxCell id="ujMnchfc8mpm0ilcwJpV-31" value="库存数" style="shape=partialRectangle;connectable=0;fillColor=#CFC86B;top=0;left=0;bottom=0;right=0;align=left;spacingLeft=6;overflow=hidden;" parent="ujMnchfc8mpm0ilcwJpV-29" vertex="1">
          <mxGeometry x="30" width="150" height="30" as="geometry">
            <mxRectangle width="150" height="30" as="alternateBounds" />
          </mxGeometry>
        </mxCell>
        <mxCell id="ujMnchfc8mpm0ilcwJpV-32" style="shape=tableRow;horizontal=0;startSize=0;swimlaneHead=0;swimlaneBody=0;fillColor=#CFC86B;collapsible=0;dropTarget=0;points=[[0,0.5],[1,0.5]];portConstraint=eastwest;top=0;left=0;right=0;bottom=0;" parent="ujMnchfc8mpm0ilcwJpV-10" vertex="1">
          <mxGeometry y="180" width="180" height="30" as="geometry" />
        </mxCell>
        <mxCell id="ujMnchfc8mpm0ilcwJpV-33" style="shape=partialRectangle;connectable=0;fillColor=#CFC86B;top=0;left=0;bottom=0;right=0;editable=1;overflow=hidden;" parent="ujMnchfc8mpm0ilcwJpV-32" vertex="1">
          <mxGeometry width="30" height="30" as="geometry">
            <mxRectangle width="30" height="30" as="alternateBounds" />
          </mxGeometry>
        </mxCell>
        <mxCell id="ujMnchfc8mpm0ilcwJpV-34" value="零售价" style="shape=partialRectangle;connectable=0;fillColor=#CFC86B;top=0;left=0;bottom=0;right=0;align=left;spacingLeft=6;overflow=hidden;" parent="ujMnchfc8mpm0ilcwJpV-32" vertex="1">
          <mxGeometry x="30" width="150" height="30" as="geometry">
            <mxRectangle width="150" height="30" as="alternateBounds" />
          </mxGeometry>
        </mxCell>
        <mxCell id="ujMnchfc8mpm0ilcwJpV-35" style="shape=tableRow;horizontal=0;startSize=0;swimlaneHead=0;swimlaneBody=0;fillColor=#CFC86B;collapsible=0;dropTarget=0;points=[[0,0.5],[1,0.5]];portConstraint=eastwest;top=0;left=0;right=0;bottom=0;" parent="ujMnchfc8mpm0ilcwJpV-10" vertex="1">
          <mxGeometry y="210" width="180" height="30" as="geometry" />
        </mxCell>
        <mxCell id="ujMnchfc8mpm0ilcwJpV-36" style="shape=partialRectangle;connectable=0;fillColor=#CFC86B;top=0;left=0;bottom=0;right=0;editable=1;overflow=hidden;" parent="ujMnchfc8mpm0ilcwJpV-35" vertex="1">
          <mxGeometry width="30" height="30" as="geometry">
            <mxRectangle width="30" height="30" as="alternateBounds" />
          </mxGeometry>
        </mxCell>
        <mxCell id="ujMnchfc8mpm0ilcwJpV-37" value="采购价" style="shape=partialRectangle;connectable=0;fillColor=#CFC86B;top=0;left=0;bottom=0;right=0;align=left;spacingLeft=6;overflow=hidden;" parent="ujMnchfc8mpm0ilcwJpV-35" vertex="1">
          <mxGeometry x="30" width="150" height="30" as="geometry">
            <mxRectangle width="150" height="30" as="alternateBounds" />
          </mxGeometry>
        </mxCell>
        <mxCell id="8d-5phC_stLCoWwtOvVK-0" value="【CPM】零件信息" style="shape=table;startSize=30;container=1;collapsible=1;childLayout=tableLayout;fixedRows=1;rowLines=0;fontStyle=1;align=center;resizeLast=1;fillColor=#00BB00;" parent="7-ZAPzwOO9HuGMdEz8zF-1" vertex="1">
          <mxGeometry x="90" y="400" width="180" height="240" as="geometry" />
        </mxCell>
        <mxCell id="8d-5phC_stLCoWwtOvVK-1" value="" style="shape=tableRow;horizontal=0;startSize=0;swimlaneHead=0;swimlaneBody=0;fillColor=#00BB00;collapsible=0;dropTarget=0;points=[[0,0.5],[1,0.5]];portConstraint=eastwest;top=0;left=0;right=0;bottom=1;" parent="8d-5phC_stLCoWwtOvVK-0" vertex="1">
          <mxGeometry y="30" width="180" height="30" as="geometry" />
        </mxCell>
        <mxCell id="8d-5phC_stLCoWwtOvVK-2" value="PK" style="shape=partialRectangle;connectable=0;fillColor=#00BB00;top=0;left=0;bottom=0;right=0;fontStyle=1;overflow=hidden;" parent="8d-5phC_stLCoWwtOvVK-1" vertex="1">
          <mxGeometry width="30" height="30" as="geometry">
            <mxRectangle width="30" height="30" as="alternateBounds" />
          </mxGeometry>
        </mxCell>
        <mxCell id="8d-5phC_stLCoWwtOvVK-3" value="id" style="shape=partialRectangle;connectable=0;fillColor=#00BB00;top=0;left=0;bottom=0;right=0;align=left;spacingLeft=6;fontStyle=1;overflow=hidden;" parent="8d-5phC_stLCoWwtOvVK-1" vertex="1">
          <mxGeometry x="30" width="150" height="30" as="geometry">
            <mxRectangle width="150" height="30" as="alternateBounds" />
          </mxGeometry>
        </mxCell>
        <mxCell id="8d-5phC_stLCoWwtOvVK-4" value="" style="shape=tableRow;horizontal=0;startSize=0;swimlaneHead=0;swimlaneBody=0;fillColor=#00BB00;collapsible=0;dropTarget=0;points=[[0,0.5],[1,0.5]];portConstraint=eastwest;top=0;left=0;right=0;bottom=0;" parent="8d-5phC_stLCoWwtOvVK-0" vertex="1">
          <mxGeometry y="60" width="180" height="30" as="geometry" />
        </mxCell>
        <mxCell id="8d-5phC_stLCoWwtOvVK-5" value="" style="shape=partialRectangle;connectable=0;fillColor=#00BB00;top=0;left=0;bottom=0;right=0;editable=1;overflow=hidden;" parent="8d-5phC_stLCoWwtOvVK-4" vertex="1">
          <mxGeometry width="30" height="30" as="geometry">
            <mxRectangle width="30" height="30" as="alternateBounds" />
          </mxGeometry>
        </mxCell>
        <mxCell id="8d-5phC_stLCoWwtOvVK-6" value="零件编号" style="shape=partialRectangle;connectable=0;fillColor=#00BB00;top=0;left=0;bottom=0;right=0;align=left;spacingLeft=6;overflow=hidden;" parent="8d-5phC_stLCoWwtOvVK-4" vertex="1">
          <mxGeometry x="30" width="150" height="30" as="geometry">
            <mxRectangle width="150" height="30" as="alternateBounds" />
          </mxGeometry>
        </mxCell>
        <mxCell id="8d-5phC_stLCoWwtOvVK-7" value="" style="shape=tableRow;horizontal=0;startSize=0;swimlaneHead=0;swimlaneBody=0;fillColor=#00BB00;collapsible=0;dropTarget=0;points=[[0,0.5],[1,0.5]];portConstraint=eastwest;top=0;left=0;right=0;bottom=0;" parent="8d-5phC_stLCoWwtOvVK-0" vertex="1">
          <mxGeometry y="90" width="180" height="30" as="geometry" />
        </mxCell>
        <mxCell id="8d-5phC_stLCoWwtOvVK-8" value="" style="shape=partialRectangle;connectable=0;fillColor=#00BB00;top=0;left=0;bottom=0;right=0;editable=1;overflow=hidden;" parent="8d-5phC_stLCoWwtOvVK-7" vertex="1">
          <mxGeometry width="30" height="30" as="geometry">
            <mxRectangle width="30" height="30" as="alternateBounds" />
          </mxGeometry>
        </mxCell>
        <mxCell id="8d-5phC_stLCoWwtOvVK-9" value="零件名称    " style="shape=partialRectangle;connectable=0;fillColor=#00BB00;top=0;left=0;bottom=0;right=0;align=left;spacingLeft=6;overflow=hidden;" parent="8d-5phC_stLCoWwtOvVK-7" vertex="1">
          <mxGeometry x="30" width="150" height="30" as="geometry">
            <mxRectangle width="150" height="30" as="alternateBounds" />
          </mxGeometry>
        </mxCell>
        <mxCell id="8d-5phC_stLCoWwtOvVK-10" style="shape=tableRow;horizontal=0;startSize=0;swimlaneHead=0;swimlaneBody=0;fillColor=#00BB00;collapsible=0;dropTarget=0;points=[[0,0.5],[1,0.5]];portConstraint=eastwest;top=0;left=0;right=0;bottom=0;" parent="8d-5phC_stLCoWwtOvVK-0" vertex="1">
          <mxGeometry y="120" width="180" height="30" as="geometry" />
        </mxCell>
        <mxCell id="8d-5phC_stLCoWwtOvVK-11" style="shape=partialRectangle;connectable=0;fillColor=#00BB00;top=0;left=0;bottom=0;right=0;editable=1;overflow=hidden;" parent="8d-5phC_stLCoWwtOvVK-10" vertex="1">
          <mxGeometry width="30" height="30" as="geometry">
            <mxRectangle width="30" height="30" as="alternateBounds" />
          </mxGeometry>
        </mxCell>
        <mxCell id="8d-5phC_stLCoWwtOvVK-12" value="零件分类" style="shape=partialRectangle;connectable=0;fillColor=#00BB00;top=0;left=0;bottom=0;right=0;align=left;spacingLeft=6;overflow=hidden;" parent="8d-5phC_stLCoWwtOvVK-10" vertex="1">
          <mxGeometry x="30" width="150" height="30" as="geometry">
            <mxRectangle width="150" height="30" as="alternateBounds" />
          </mxGeometry>
        </mxCell>
        <mxCell id="8d-5phC_stLCoWwtOvVK-13" style="shape=tableRow;horizontal=0;startSize=0;swimlaneHead=0;swimlaneBody=0;fillColor=#00BB00;collapsible=0;dropTarget=0;points=[[0,0.5],[1,0.5]];portConstraint=eastwest;top=0;left=0;right=0;bottom=0;" parent="8d-5phC_stLCoWwtOvVK-0" vertex="1">
          <mxGeometry y="150" width="180" height="30" as="geometry" />
        </mxCell>
        <mxCell id="8d-5phC_stLCoWwtOvVK-14" style="shape=partialRectangle;connectable=0;fillColor=#00BB00;top=0;left=0;bottom=0;right=0;editable=1;overflow=hidden;" parent="8d-5phC_stLCoWwtOvVK-13" vertex="1">
          <mxGeometry width="30" height="30" as="geometry">
            <mxRectangle width="30" height="30" as="alternateBounds" />
          </mxGeometry>
        </mxCell>
        <mxCell id="8d-5phC_stLCoWwtOvVK-15" value="库存数" style="shape=partialRectangle;connectable=0;fillColor=#00BB00;top=0;left=0;bottom=0;right=0;align=left;spacingLeft=6;overflow=hidden;" parent="8d-5phC_stLCoWwtOvVK-13" vertex="1">
          <mxGeometry x="30" width="150" height="30" as="geometry">
            <mxRectangle width="150" height="30" as="alternateBounds" />
          </mxGeometry>
        </mxCell>
        <mxCell id="8d-5phC_stLCoWwtOvVK-16" style="shape=tableRow;horizontal=0;startSize=0;swimlaneHead=0;swimlaneBody=0;fillColor=#00BB00;collapsible=0;dropTarget=0;points=[[0,0.5],[1,0.5]];portConstraint=eastwest;top=0;left=0;right=0;bottom=0;" parent="8d-5phC_stLCoWwtOvVK-0" vertex="1">
          <mxGeometry y="180" width="180" height="30" as="geometry" />
        </mxCell>
        <mxCell id="8d-5phC_stLCoWwtOvVK-17" style="shape=partialRectangle;connectable=0;fillColor=#00BB00;top=0;left=0;bottom=0;right=0;editable=1;overflow=hidden;" parent="8d-5phC_stLCoWwtOvVK-16" vertex="1">
          <mxGeometry width="30" height="30" as="geometry">
            <mxRectangle width="30" height="30" as="alternateBounds" />
          </mxGeometry>
        </mxCell>
        <mxCell id="8d-5phC_stLCoWwtOvVK-18" value="零售价" style="shape=partialRectangle;connectable=0;fillColor=#00BB00;top=0;left=0;bottom=0;right=0;align=left;spacingLeft=6;overflow=hidden;" parent="8d-5phC_stLCoWwtOvVK-16" vertex="1">
          <mxGeometry x="30" width="150" height="30" as="geometry">
            <mxRectangle width="150" height="30" as="alternateBounds" />
          </mxGeometry>
        </mxCell>
        <mxCell id="8d-5phC_stLCoWwtOvVK-19" style="shape=tableRow;horizontal=0;startSize=0;swimlaneHead=0;swimlaneBody=0;fillColor=#00BB00;collapsible=0;dropTarget=0;points=[[0,0.5],[1,0.5]];portConstraint=eastwest;top=0;left=0;right=0;bottom=0;" parent="8d-5phC_stLCoWwtOvVK-0" vertex="1">
          <mxGeometry y="210" width="180" height="30" as="geometry" />
        </mxCell>
        <mxCell id="8d-5phC_stLCoWwtOvVK-20" style="shape=partialRectangle;connectable=0;fillColor=#00BB00;top=0;left=0;bottom=0;right=0;editable=1;overflow=hidden;" parent="8d-5phC_stLCoWwtOvVK-19" vertex="1">
          <mxGeometry width="30" height="30" as="geometry">
            <mxRectangle width="30" height="30" as="alternateBounds" />
          </mxGeometry>
        </mxCell>
        <mxCell id="8d-5phC_stLCoWwtOvVK-21" value="采购价" style="shape=partialRectangle;connectable=0;fillColor=#00BB00;top=0;left=0;bottom=0;right=0;align=left;spacingLeft=6;overflow=hidden;" parent="8d-5phC_stLCoWwtOvVK-19" vertex="1">
          <mxGeometry x="30" width="150" height="30" as="geometry">
            <mxRectangle width="150" height="30" as="alternateBounds" />
          </mxGeometry>
        </mxCell>
        <mxCell id="NS3TpaYmcHYCosk1XOu--0" value="" style="endArrow=none;html=1;endSize=12;startArrow=diamondThin;startSize=14;startFill=0;edgeStyle=orthogonalEdgeStyle;align=left;verticalAlign=bottom;rounded=0;fontColor=#393939;exitX=0;exitY=0.5;exitDx=0;exitDy=0;entryX=1;entryY=0.5;entryDx=0;entryDy=0;endFill=0;" parent="7-ZAPzwOO9HuGMdEz8zF-1" source="ujMnchfc8mpm0ilcwJpV-14" target="8d-5phC_stLCoWwtOvVK-4" edge="1">
          <mxGeometry x="-1" y="3" relative="1" as="geometry">
            <mxPoint x="430" y="430" as="sourcePoint" />
            <mxPoint x="590" y="430" as="targetPoint" />
            <Array as="points">
              <mxPoint x="320" y="395" />
              <mxPoint x="320" y="475" />
            </Array>
          </mxGeometry>
        </mxCell>
        <mxCell id="4tbbkU1VYWUoTYzql0UM-0" value="1" style="text;html=1;align=center;verticalAlign=middle;resizable=0;points=[];autosize=1;strokeColor=none;fillColor=none;" parent="7-ZAPzwOO9HuGMdEz8zF-1" vertex="1">
          <mxGeometry x="330" y="370" width="20" height="20" as="geometry" />
        </mxCell>
        <mxCell id="4tbbkU1VYWUoTYzql0UM-1" value="1" style="text;html=1;align=center;verticalAlign=middle;resizable=0;points=[];autosize=1;strokeColor=none;fillColor=none;" parent="7-ZAPzwOO9HuGMdEz8zF-1" vertex="1">
          <mxGeometry x="270" y="450" width="20" height="20" as="geometry" />
        </mxCell>
      </root>
    </mxGraphModel>
  </diagram>
  <diagram id="FX3MtVXmibXrm6kMx84a" name="第 5 页">
    <mxGraphModel dx="1032" dy="498" grid="1" gridSize="10" guides="1" tooltips="1" connect="1" arrows="1" fold="1" page="1" pageScale="1" pageWidth="827" pageHeight="1169" math="0" shadow="0">
      <root>
        <mxCell id="-UIqBWWNGBVuv4L5VFWg-0" />
        <mxCell id="-UIqBWWNGBVuv4L5VFWg-1" parent="-UIqBWWNGBVuv4L5VFWg-0" />
        <mxCell id="-UIqBWWNGBVuv4L5VFWg-2" value="零部件前端" style="shape=umlLifeline;perimeter=lifelinePerimeter;whiteSpace=wrap;html=1;container=1;collapsible=0;recursiveResize=0;outlineConnect=0;fillColor=#FFFFFF;" vertex="1" parent="-UIqBWWNGBVuv4L5VFWg-1">
          <mxGeometry x="50" y="160" width="100" height="400" as="geometry" />
        </mxCell>
        <mxCell id="-UIqBWWNGBVuv4L5VFWg-3" value="" style="html=1;points=[];perimeter=orthogonalPerimeter;fillColor=#FFFFFF;" vertex="1" parent="-UIqBWWNGBVuv4L5VFWg-2">
          <mxGeometry x="45" y="80" width="10" height="300" as="geometry" />
        </mxCell>
        <mxCell id="-UIqBWWNGBVuv4L5VFWg-4" value="接口-BFF服务" style="shape=umlLifeline;perimeter=lifelinePerimeter;whiteSpace=wrap;html=1;container=1;collapsible=0;recursiveResize=0;outlineConnect=0;fillColor=#FFFFFF;" vertex="1" parent="-UIqBWWNGBVuv4L5VFWg-1">
          <mxGeometry x="240" y="160" width="100" height="400" as="geometry" />
        </mxCell>
        <mxCell id="-UIqBWWNGBVuv4L5VFWg-5" value="" style="html=1;points=[];perimeter=orthogonalPerimeter;fillColor=#FFFFFF;" vertex="1" parent="-UIqBWWNGBVuv4L5VFWg-4">
          <mxGeometry x="45" y="80" width="10" height="280" as="geometry" />
        </mxCell>
        <mxCell id="-UIqBWWNGBVuv4L5VFWg-6" value="" style="html=1;verticalAlign=bottom;endArrow=open;dashed=1;endSize=8;exitX=0;exitY=0.95;rounded=0;" edge="1" parent="-UIqBWWNGBVuv4L5VFWg-4">
          <mxGeometry relative="1" as="geometry">
            <mxPoint x="-135" y="360" as="targetPoint" />
            <mxPoint x="55" y="360" as="sourcePoint" />
          </mxGeometry>
        </mxCell>
        <mxCell id="-UIqBWWNGBVuv4L5VFWg-7" value="领域层-库存管理原子服务" style="shape=umlLifeline;perimeter=lifelinePerimeter;whiteSpace=wrap;html=1;container=1;collapsible=0;recursiveResize=0;outlineConnect=0;fillColor=#FFFFFF;" vertex="1" parent="-UIqBWWNGBVuv4L5VFWg-1">
          <mxGeometry x="580" y="160" width="100" height="400" as="geometry" />
        </mxCell>
        <mxCell id="-UIqBWWNGBVuv4L5VFWg-8" value="" style="html=1;points=[];perimeter=orthogonalPerimeter;fillColor=#FFFFFF;" vertex="1" parent="-UIqBWWNGBVuv4L5VFWg-7">
          <mxGeometry x="45" y="232" width="10" height="80" as="geometry" />
        </mxCell>
        <mxCell id="-UIqBWWNGBVuv4L5VFWg-9" value="" style="html=1;points=[];perimeter=orthogonalPerimeter;fillColor=#FFFFFF;" vertex="1" parent="-UIqBWWNGBVuv4L5VFWg-7">
          <mxGeometry x="55" y="262" width="10" height="40" as="geometry" />
        </mxCell>
        <mxCell id="-UIqBWWNGBVuv4L5VFWg-10" value="1.2.1.1新增零件主信息()&lt;br&gt;持久化" style="edgeStyle=orthogonalEdgeStyle;html=1;align=left;spacingLeft=2;endArrow=block;rounded=0;entryX=1;entryY=0;endSize=10;exitX=0.987;exitY=0.125;exitDx=0;exitDy=0;exitPerimeter=0;" edge="1" parent="-UIqBWWNGBVuv4L5VFWg-7" source="-UIqBWWNGBVuv4L5VFWg-8" target="-UIqBWWNGBVuv4L5VFWg-9">
          <mxGeometry relative="1" as="geometry">
            <mxPoint x="60" y="242" as="sourcePoint" />
            <Array as="points">
              <mxPoint x="90" y="242" />
              <mxPoint x="90" y="262" />
            </Array>
          </mxGeometry>
        </mxCell>
        <mxCell id="-UIqBWWNGBVuv4L5VFWg-11" value="应用层-零部件聚合服务" style="shape=umlLifeline;perimeter=lifelinePerimeter;whiteSpace=wrap;html=1;container=1;collapsible=0;recursiveResize=0;outlineConnect=0;fillColor=#FFFFFF;" vertex="1" parent="-UIqBWWNGBVuv4L5VFWg-1">
          <mxGeometry x="410" y="160" width="100" height="400" as="geometry" />
        </mxCell>
        <mxCell id="-UIqBWWNGBVuv4L5VFWg-12" value="" style="html=1;points=[];perimeter=orthogonalPerimeter;fillColor=#FFFFFF;" vertex="1" parent="-UIqBWWNGBVuv4L5VFWg-11">
          <mxGeometry x="45" y="210" width="10" height="130" as="geometry" />
        </mxCell>
        <mxCell id="-UIqBWWNGBVuv4L5VFWg-13" value="" style="html=1;points=[];perimeter=orthogonalPerimeter;fillColor=#FFFFFF;" vertex="1" parent="-UIqBWWNGBVuv4L5VFWg-11">
          <mxGeometry x="-115" y="130" width="10" height="40" as="geometry" />
        </mxCell>
        <mxCell id="-UIqBWWNGBVuv4L5VFWg-14" value="1.1参数合规性校验()" style="edgeStyle=orthogonalEdgeStyle;html=1;align=left;spacingLeft=2;endArrow=block;rounded=0;entryX=1;entryY=0;endSize=10;" edge="1" parent="-UIqBWWNGBVuv4L5VFWg-11" target="-UIqBWWNGBVuv4L5VFWg-13">
          <mxGeometry relative="1" as="geometry">
            <mxPoint x="-115" y="110" as="sourcePoint" />
            <Array as="points">
              <mxPoint x="-80" y="110" />
              <mxPoint x="-80" y="130" />
            </Array>
          </mxGeometry>
        </mxCell>
        <mxCell id="-UIqBWWNGBVuv4L5VFWg-15" value="1.手工新增零件主信息()" style="html=1;verticalAlign=bottom;endArrow=block;rounded=0;endSize=10;" edge="1" parent="-UIqBWWNGBVuv4L5VFWg-1">
          <mxGeometry relative="1" as="geometry">
            <mxPoint x="105.09999999999991" y="239.9999999999999" as="sourcePoint" />
            <mxPoint x="284.9999999999998" y="239.9999999999999" as="targetPoint" />
          </mxGeometry>
        </mxCell>
        <mxCell id="-UIqBWWNGBVuv4L5VFWg-16" value="1.2.1调用库存管理原子服务()" style="html=1;verticalAlign=bottom;endArrow=block;entryX=0;entryY=0;rounded=0;endSize=10;" edge="1" parent="-UIqBWWNGBVuv4L5VFWg-1" target="-UIqBWWNGBVuv4L5VFWg-8">
          <mxGeometry relative="1" as="geometry">
            <mxPoint x="464.9999999999998" y="392" as="sourcePoint" />
          </mxGeometry>
        </mxCell>
        <mxCell id="-UIqBWWNGBVuv4L5VFWg-17" value="" style="html=1;verticalAlign=bottom;endArrow=open;dashed=1;endSize=8;exitX=0;exitY=0.95;rounded=0;" edge="1" parent="-UIqBWWNGBVuv4L5VFWg-1">
          <mxGeometry relative="1" as="geometry">
            <mxPoint x="464.9999999999998" y="472" as="targetPoint" />
            <mxPoint x="624.9999999999998" y="472" as="sourcePoint" />
          </mxGeometry>
        </mxCell>
        <mxCell id="-UIqBWWNGBVuv4L5VFWg-18" value="" style="html=1;verticalAlign=bottom;endArrow=open;dashed=1;endSize=8;exitX=0;exitY=0.95;rounded=0;" edge="1" parent="-UIqBWWNGBVuv4L5VFWg-1">
          <mxGeometry relative="1" as="geometry">
            <mxPoint x="294.9999999999998" y="499.9999999999998" as="targetPoint" />
            <mxPoint x="454.9999999999998" y="499.9999999999998" as="sourcePoint" />
          </mxGeometry>
        </mxCell>
        <mxCell id="-UIqBWWNGBVuv4L5VFWg-19" value="1.2调用库存管理聚合&lt;br&gt;新增零件主信息()" style="html=1;verticalAlign=bottom;endArrow=block;rounded=0;endSize=10;exitX=1.046;exitY=0.087;exitDx=0;exitDy=0;exitPerimeter=0;" edge="1" parent="-UIqBWWNGBVuv4L5VFWg-1">
          <mxGeometry relative="1" as="geometry">
            <mxPoint x="295.46000000000026" y="370.27999999999986" as="sourcePoint" />
            <mxPoint x="459.5000000000002" y="370.27999999999986" as="targetPoint" />
          </mxGeometry>
        </mxCell>
        <mxCell id="-UIqBWWNGBVuv4L5VFWg-22" value="手工新增零件主信息-行为" style="shape=umlFrame;whiteSpace=wrap;html=1;fillColor=#FFFFFF;width=143;height=20;" vertex="1" parent="-UIqBWWNGBVuv4L5VFWg-1">
          <mxGeometry x="37" y="130" width="773" height="430" as="geometry" />
        </mxCell>
      </root>
    </mxGraphModel>
  </diagram>
</mxfile>
